<mxfile host="app.diagrams.net" modified="2023-10-04T02:06:33.914Z" agent="Mozilla/5.0 (Windows NT 10.0; Win64; x64; rv:109.0) Gecko/20100101 Firefox/118.0" etag="ryUqzc4fdzFuRy3jCHHE" version="22.0.2" type="github">
  <diagram name="Page-1" id="Uq_Qaftrw7N9SfN3vnP9">
    <mxGraphModel dx="880" dy="1542" grid="1" gridSize="10" guides="1" tooltips="1" connect="1" arrows="1" fold="1" page="1" pageScale="1" pageWidth="850" pageHeight="1100" math="0" shadow="0">
      <root>
        <mxCell id="0" />
        <mxCell id="1" parent="0" />
        <mxCell id="kN6YykBzkvB_tl8uMo5B-1" value="MULAI" style="ellipse;whiteSpace=wrap;html=1;" vertex="1" parent="1">
          <mxGeometry x="390" y="-10" width="120" height="80" as="geometry" />
        </mxCell>
        <mxCell id="kN6YykBzkvB_tl8uMo5B-2" value="INPUT ANGKA" style="shape=parallelogram;perimeter=parallelogramPerimeter;whiteSpace=wrap;html=1;fixedSize=1;" vertex="1" parent="1">
          <mxGeometry x="380" y="150" width="120" height="60" as="geometry" />
        </mxCell>
        <mxCell id="kN6YykBzkvB_tl8uMo5B-3" value="MENEBAK" style="rounded=1;whiteSpace=wrap;html=1;" vertex="1" parent="1">
          <mxGeometry x="380" y="340" width="120" height="60" as="geometry" />
        </mxCell>
        <mxCell id="kN6YykBzkvB_tl8uMo5B-4" value="BENAR TEBAKAN" style="rhombus;whiteSpace=wrap;html=1;" vertex="1" parent="1">
          <mxGeometry x="800" y="445" width="90" height="90" as="geometry" />
        </mxCell>
        <mxCell id="kN6YykBzkvB_tl8uMo5B-29" style="edgeStyle=orthogonalEdgeStyle;rounded=0;orthogonalLoop=1;jettySize=auto;html=1;exitX=1;exitY=0.5;exitDx=0;exitDy=0;entryX=0;entryY=0.5;entryDx=0;entryDy=0;" edge="1" parent="1" source="kN6YykBzkvB_tl8uMo5B-5" target="kN6YykBzkvB_tl8uMo5B-6">
          <mxGeometry relative="1" as="geometry" />
        </mxCell>
        <mxCell id="kN6YykBzkvB_tl8uMo5B-5" value="&lt;div&gt;TEBAKAN&lt;/div&gt;&lt;div&gt;&amp;lt;ANGKA&lt;/div&gt;" style="rhombus;whiteSpace=wrap;html=1;" vertex="1" parent="1">
          <mxGeometry x="390" y="435" width="100" height="110" as="geometry" />
        </mxCell>
        <mxCell id="kN6YykBzkvB_tl8uMo5B-6" value="&lt;div&gt;TEBAKAN&lt;/div&gt;&lt;div&gt;&amp;gt;ANGKA&lt;br&gt;&lt;/div&gt;" style="rhombus;whiteSpace=wrap;html=1;" vertex="1" parent="1">
          <mxGeometry x="580" y="435" width="95" height="110" as="geometry" />
        </mxCell>
        <mxCell id="kN6YykBzkvB_tl8uMo5B-11" value="INPUT TEBAKAN" style="shape=parallelogram;perimeter=parallelogramPerimeter;whiteSpace=wrap;html=1;fixedSize=1;" vertex="1" parent="1">
          <mxGeometry x="370" y="240" width="120" height="60" as="geometry" />
        </mxCell>
        <mxCell id="kN6YykBzkvB_tl8uMo5B-12" value="" style="endArrow=classic;html=1;rounded=0;entryX=0.5;entryY=0;entryDx=0;entryDy=0;exitX=0.583;exitY=1.033;exitDx=0;exitDy=0;exitPerimeter=0;" edge="1" parent="1" source="kN6YykBzkvB_tl8uMo5B-11" target="kN6YykBzkvB_tl8uMo5B-3">
          <mxGeometry width="50" height="50" relative="1" as="geometry">
            <mxPoint x="380" y="330" as="sourcePoint" />
            <mxPoint x="430" y="280" as="targetPoint" />
          </mxGeometry>
        </mxCell>
        <mxCell id="kN6YykBzkvB_tl8uMo5B-13" value="" style="endArrow=classic;html=1;rounded=0;entryX=0.575;entryY=-0.033;entryDx=0;entryDy=0;entryPerimeter=0;exitX=0.5;exitY=1;exitDx=0;exitDy=0;" edge="1" parent="1" source="kN6YykBzkvB_tl8uMo5B-2" target="kN6YykBzkvB_tl8uMo5B-11">
          <mxGeometry width="50" height="50" relative="1" as="geometry">
            <mxPoint x="380" y="240" as="sourcePoint" />
            <mxPoint x="430" y="190" as="targetPoint" />
          </mxGeometry>
        </mxCell>
        <mxCell id="kN6YykBzkvB_tl8uMo5B-14" value="" style="endArrow=classic;html=1;rounded=0;entryX=0.558;entryY=0.05;entryDx=0;entryDy=0;entryPerimeter=0;" edge="1" parent="1" source="kN6YykBzkvB_tl8uMo5B-1" target="kN6YykBzkvB_tl8uMo5B-2">
          <mxGeometry width="50" height="50" relative="1" as="geometry">
            <mxPoint x="380" y="240" as="sourcePoint" />
            <mxPoint x="430" y="190" as="targetPoint" />
          </mxGeometry>
        </mxCell>
        <mxCell id="kN6YykBzkvB_tl8uMo5B-15" value="" style="endArrow=classic;html=1;rounded=0;entryX=0.5;entryY=0;entryDx=0;entryDy=0;exitX=0.5;exitY=1;exitDx=0;exitDy=0;" edge="1" parent="1" source="kN6YykBzkvB_tl8uMo5B-3" target="kN6YykBzkvB_tl8uMo5B-5">
          <mxGeometry width="50" height="50" relative="1" as="geometry">
            <mxPoint x="380" y="390" as="sourcePoint" />
            <mxPoint x="430" y="340" as="targetPoint" />
          </mxGeometry>
        </mxCell>
        <mxCell id="kN6YykBzkvB_tl8uMo5B-16" value="" style="endArrow=classic;html=1;rounded=0;exitX=0.5;exitY=1;exitDx=0;exitDy=0;" edge="1" parent="1" source="kN6YykBzkvB_tl8uMo5B-5" target="kN6YykBzkvB_tl8uMo5B-17">
          <mxGeometry width="50" height="50" relative="1" as="geometry">
            <mxPoint x="380" y="510" as="sourcePoint" />
            <mxPoint x="600" y="485" as="targetPoint" />
          </mxGeometry>
        </mxCell>
        <mxCell id="kN6YykBzkvB_tl8uMo5B-17" value="&lt;div&gt;ANGKA LEBIH&lt;/div&gt;&lt;div&gt;BESAR&lt;br&gt;&lt;/div&gt;" style="shape=parallelogram;perimeter=parallelogramPerimeter;whiteSpace=wrap;html=1;fixedSize=1;" vertex="1" parent="1">
          <mxGeometry x="380" y="570" width="120" height="60" as="geometry" />
        </mxCell>
        <mxCell id="kN6YykBzkvB_tl8uMo5B-18" value="" style="endArrow=classic;html=1;rounded=0;exitX=1;exitY=0.5;exitDx=0;exitDy=0;entryX=0;entryY=0.5;entryDx=0;entryDy=0;" edge="1" parent="1" source="kN6YykBzkvB_tl8uMo5B-6">
          <mxGeometry width="50" height="50" relative="1" as="geometry">
            <mxPoint x="380" y="570" as="sourcePoint" />
            <mxPoint x="800" y="490" as="targetPoint" />
          </mxGeometry>
        </mxCell>
        <mxCell id="kN6YykBzkvB_tl8uMo5B-19" value="&lt;div&gt;ANGKA LEBIH&lt;/div&gt;&lt;div&gt;KECIL&lt;br&gt;&lt;/div&gt;" style="shape=parallelogram;perimeter=parallelogramPerimeter;whiteSpace=wrap;html=1;fixedSize=1;" vertex="1" parent="1">
          <mxGeometry x="567.5" y="570" width="120" height="60" as="geometry" />
        </mxCell>
        <mxCell id="kN6YykBzkvB_tl8uMo5B-30" value="" style="endArrow=classic;html=1;rounded=0;entryX=0.5;entryY=0;entryDx=0;entryDy=0;exitX=0.5;exitY=1;exitDx=0;exitDy=0;" edge="1" parent="1" source="kN6YykBzkvB_tl8uMo5B-6" target="kN6YykBzkvB_tl8uMo5B-19">
          <mxGeometry width="50" height="50" relative="1" as="geometry">
            <mxPoint x="660" y="520" as="sourcePoint" />
            <mxPoint x="710" y="470" as="targetPoint" />
          </mxGeometry>
        </mxCell>
        <mxCell id="kN6YykBzkvB_tl8uMo5B-31" value="" style="endArrow=classic;html=1;rounded=0;exitX=0.5;exitY=1;exitDx=0;exitDy=0;" edge="1" parent="1" source="kN6YykBzkvB_tl8uMo5B-4">
          <mxGeometry width="50" height="50" relative="1" as="geometry">
            <mxPoint x="660" y="520" as="sourcePoint" />
            <mxPoint x="845" y="570" as="targetPoint" />
          </mxGeometry>
        </mxCell>
        <mxCell id="kN6YykBzkvB_tl8uMo5B-32" value="BENAR" style="rounded=0;whiteSpace=wrap;html=1;" vertex="1" parent="1">
          <mxGeometry x="780" y="570" width="120" height="60" as="geometry" />
        </mxCell>
        <mxCell id="kN6YykBzkvB_tl8uMo5B-33" value="" style="endArrow=none;html=1;rounded=0;" edge="1" parent="1">
          <mxGeometry width="50" height="50" relative="1" as="geometry">
            <mxPoint x="320" y="600" as="sourcePoint" />
            <mxPoint x="320" y="260" as="targetPoint" />
          </mxGeometry>
        </mxCell>
        <mxCell id="kN6YykBzkvB_tl8uMo5B-34" value="" style="endArrow=classic;html=1;rounded=0;entryX=0;entryY=0.25;entryDx=0;entryDy=0;" edge="1" parent="1" target="kN6YykBzkvB_tl8uMo5B-11">
          <mxGeometry width="50" height="50" relative="1" as="geometry">
            <mxPoint x="320" y="260" as="sourcePoint" />
            <mxPoint x="710" y="380" as="targetPoint" />
          </mxGeometry>
        </mxCell>
        <mxCell id="kN6YykBzkvB_tl8uMo5B-36" value="" style="endArrow=none;html=1;rounded=0;exitX=0;exitY=0.5;exitDx=0;exitDy=0;" edge="1" parent="1" source="kN6YykBzkvB_tl8uMo5B-17">
          <mxGeometry width="50" height="50" relative="1" as="geometry">
            <mxPoint x="660" y="430" as="sourcePoint" />
            <mxPoint x="320" y="600" as="targetPoint" />
          </mxGeometry>
        </mxCell>
        <mxCell id="kN6YykBzkvB_tl8uMo5B-37" value="" style="endArrow=classic;html=1;rounded=0;" edge="1" parent="1">
          <mxGeometry width="50" height="50" relative="1" as="geometry">
            <mxPoint x="340" y="670" as="sourcePoint" />
            <mxPoint x="340" y="260" as="targetPoint" />
          </mxGeometry>
        </mxCell>
        <mxCell id="kN6YykBzkvB_tl8uMo5B-38" value="" style="endArrow=none;html=1;rounded=0;" edge="1" parent="1">
          <mxGeometry width="50" height="50" relative="1" as="geometry">
            <mxPoint x="340" y="670" as="sourcePoint" />
            <mxPoint x="630" y="670" as="targetPoint" />
          </mxGeometry>
        </mxCell>
        <mxCell id="kN6YykBzkvB_tl8uMo5B-39" value="" style="endArrow=none;html=1;rounded=0;" edge="1" parent="1">
          <mxGeometry width="50" height="50" relative="1" as="geometry">
            <mxPoint x="630" y="630" as="sourcePoint" />
            <mxPoint x="630" y="670" as="targetPoint" />
          </mxGeometry>
        </mxCell>
      </root>
    </mxGraphModel>
  </diagram>
</mxfile>
